<mxfile host="Electron" modified="2023-05-24T08:04:19.137Z" agent="Mozilla/5.0 (X11; Linux x86_64) AppleWebKit/537.36 (KHTML, like Gecko) draw.io/21.2.1 Chrome/112.0.5615.87 Electron/24.1.2 Safari/537.36" etag="3eb8rkMJ-hkGkWwh9H_e" version="21.2.1" type="device">
  <diagram name="Page-1" id="64Jat8C_JkewhNtmr-al">
    <mxGraphModel dx="989" dy="650" grid="1" gridSize="10" guides="1" tooltips="1" connect="1" arrows="1" fold="1" page="1" pageScale="1" pageWidth="850" pageHeight="1100" math="0" shadow="0">
      <root>
        <mxCell id="0" />
        <mxCell id="1" parent="0" />
        <mxCell id="0fRn0nSYquljpEjIdXTI-23" value="" style="rounded=0;whiteSpace=wrap;html=1;" parent="1" vertex="1">
          <mxGeometry x="726.7" y="150" width="260" height="220" as="geometry" />
        </mxCell>
        <mxCell id="0fRn0nSYquljpEjIdXTI-40" value="" style="rounded=0;whiteSpace=wrap;html=1;" parent="1" vertex="1">
          <mxGeometry x="903.4000000000001" y="285" width="60" height="65" as="geometry" />
        </mxCell>
        <mxCell id="0fRn0nSYquljpEjIdXTI-45" style="edgeStyle=orthogonalEdgeStyle;rounded=0;orthogonalLoop=1;jettySize=auto;html=1;entryX=0.5;entryY=0;entryDx=0;entryDy=0;" parent="1" source="0fRn0nSYquljpEjIdXTI-39" target="0fRn0nSYquljpEjIdXTI-40" edge="1">
          <mxGeometry relative="1" as="geometry" />
        </mxCell>
        <mxCell id="0fRn0nSYquljpEjIdXTI-39" value="" style="rounded=0;whiteSpace=wrap;html=1;" parent="1" vertex="1">
          <mxGeometry x="903.4000000000001" y="194.5" width="60" height="30" as="geometry" />
        </mxCell>
        <mxCell id="0fRn0nSYquljpEjIdXTI-9" value="" style="rounded=0;whiteSpace=wrap;html=1;" parent="1" vertex="1">
          <mxGeometry x="207.5" y="150" width="260" height="220" as="geometry" />
        </mxCell>
        <mxCell id="0fRn0nSYquljpEjIdXTI-1" value="&lt;b&gt;ROS&lt;/b&gt;" style="text;html=1;strokeColor=none;fillColor=none;align=center;verticalAlign=middle;whiteSpace=wrap;rounded=0;" parent="1" vertex="1">
          <mxGeometry x="190" y="120" width="60" height="30" as="geometry" />
        </mxCell>
        <mxCell id="0fRn0nSYquljpEjIdXTI-2" value="&lt;b&gt;Master&lt;/b&gt;" style="text;html=1;strokeColor=none;fillColor=none;align=center;verticalAlign=middle;whiteSpace=wrap;rounded=0;" parent="1" vertex="1">
          <mxGeometry x="207.5" y="268" width="60" height="30" as="geometry" />
        </mxCell>
        <mxCell id="0fRn0nSYquljpEjIdXTI-3" value="&lt;b&gt;Server0&lt;/b&gt;" style="text;html=1;strokeColor=none;fillColor=none;align=center;verticalAlign=middle;whiteSpace=wrap;rounded=0;" parent="1" vertex="1">
          <mxGeometry x="322.5" y="228" width="60" height="30" as="geometry" />
        </mxCell>
        <mxCell id="0fRn0nSYquljpEjIdXTI-4" value="&lt;b&gt;Server1&lt;/b&gt;" style="text;html=1;strokeColor=none;fillColor=none;align=center;verticalAlign=middle;whiteSpace=wrap;rounded=0;" parent="1" vertex="1">
          <mxGeometry x="322.8" y="338" width="60" height="30" as="geometry" />
        </mxCell>
        <mxCell id="0fRn0nSYquljpEjIdXTI-6" value="" style="image;points=[];aspect=fixed;html=1;align=center;shadow=0;dashed=0;image=img/lib/allied_telesis/computer_and_terminals/Server_Desktop.svg;" parent="1" vertex="1">
          <mxGeometry x="216.2" y="214" width="42.599999999999994" height="54" as="geometry" />
        </mxCell>
        <mxCell id="0fRn0nSYquljpEjIdXTI-7" value="" style="image;points=[];aspect=fixed;html=1;align=center;shadow=0;dashed=0;image=img/lib/allied_telesis/computer_and_terminals/Server_Desktop.svg;" parent="1" vertex="1">
          <mxGeometry x="331.5" y="284" width="42.599999999999994" height="54" as="geometry" />
        </mxCell>
        <mxCell id="0fRn0nSYquljpEjIdXTI-8" value="" style="image;points=[];aspect=fixed;html=1;align=center;shadow=0;dashed=0;image=img/lib/allied_telesis/computer_and_terminals/Server_Desktop.svg;" parent="1" vertex="1">
          <mxGeometry x="331.5" y="173" width="42.599999999999994" height="54" as="geometry" />
        </mxCell>
        <mxCell id="0fRn0nSYquljpEjIdXTI-10" value="&lt;b&gt;Part 1:&amp;nbsp;Service creation&lt;/b&gt;" style="text;html=1;strokeColor=none;fillColor=none;align=left;verticalAlign=middle;whiteSpace=wrap;rounded=0;" parent="1" vertex="1">
          <mxGeometry x="207.5" y="150" width="232.5" height="30" as="geometry" />
        </mxCell>
        <mxCell id="0fRn0nSYquljpEjIdXTI-11" value="" style="rounded=0;whiteSpace=wrap;html=1;" parent="1" vertex="1">
          <mxGeometry x="466.7" y="150" width="260" height="220" as="geometry" />
        </mxCell>
        <mxCell id="0fRn0nSYquljpEjIdXTI-12" value="&lt;b&gt;Master&lt;/b&gt;" style="text;html=1;strokeColor=none;fillColor=none;align=center;verticalAlign=middle;whiteSpace=wrap;rounded=0;" parent="1" vertex="1">
          <mxGeometry x="466.7" y="267" width="60" height="30" as="geometry" />
        </mxCell>
        <mxCell id="0fRn0nSYquljpEjIdXTI-13" value="&lt;b&gt;Server0&lt;/b&gt;" style="text;html=1;strokeColor=none;fillColor=none;align=center;verticalAlign=middle;whiteSpace=wrap;rounded=0;" parent="1" vertex="1">
          <mxGeometry x="580.7" y="221" width="60" height="30" as="geometry" />
        </mxCell>
        <mxCell id="0fRn0nSYquljpEjIdXTI-14" value="&lt;b&gt;Server1&lt;/b&gt;" style="text;html=1;strokeColor=none;fillColor=none;align=center;verticalAlign=middle;whiteSpace=wrap;rounded=0;" parent="1" vertex="1">
          <mxGeometry x="582" y="333" width="60" height="30" as="geometry" />
        </mxCell>
        <mxCell id="0fRn0nSYquljpEjIdXTI-19" style="edgeStyle=orthogonalEdgeStyle;rounded=0;orthogonalLoop=1;jettySize=auto;html=1;" parent="1" source="0fRn0nSYquljpEjIdXTI-15" target="0fRn0nSYquljpEjIdXTI-17" edge="1">
          <mxGeometry relative="1" as="geometry" />
        </mxCell>
        <mxCell id="0fRn0nSYquljpEjIdXTI-20" style="edgeStyle=orthogonalEdgeStyle;rounded=0;orthogonalLoop=1;jettySize=auto;html=1;entryX=-0.003;entryY=0.54;entryDx=0;entryDy=0;entryPerimeter=0;" parent="1" source="0fRn0nSYquljpEjIdXTI-15" target="0fRn0nSYquljpEjIdXTI-16" edge="1">
          <mxGeometry relative="1" as="geometry" />
        </mxCell>
        <mxCell id="0fRn0nSYquljpEjIdXTI-15" value="" style="image;points=[];aspect=fixed;html=1;align=center;shadow=0;dashed=0;image=img/lib/allied_telesis/computer_and_terminals/Server_Desktop.svg;" parent="1" vertex="1">
          <mxGeometry x="475.40000000000003" y="218" width="42.599999999999994" height="54" as="geometry" />
        </mxCell>
        <mxCell id="0fRn0nSYquljpEjIdXTI-16" value="" style="image;points=[];aspect=fixed;html=1;align=center;shadow=0;dashed=0;image=img/lib/allied_telesis/computer_and_terminals/Server_Desktop.svg;" parent="1" vertex="1">
          <mxGeometry x="590.7" y="288" width="42.599999999999994" height="54" as="geometry" />
        </mxCell>
        <mxCell id="0fRn0nSYquljpEjIdXTI-17" value="" style="image;points=[];aspect=fixed;html=1;align=center;shadow=0;dashed=0;image=img/lib/allied_telesis/computer_and_terminals/Server_Desktop.svg;" parent="1" vertex="1">
          <mxGeometry x="590.7" y="177" width="42.599999999999994" height="54" as="geometry" />
        </mxCell>
        <mxCell id="0fRn0nSYquljpEjIdXTI-18" value="&lt;b&gt;Part 2: Model layers distribution&lt;/b&gt;" style="text;html=1;strokeColor=none;fillColor=none;align=left;verticalAlign=middle;whiteSpace=wrap;rounded=0;" parent="1" vertex="1">
          <mxGeometry x="466.7" y="150" width="260" height="30" as="geometry" />
        </mxCell>
        <mxCell id="0fRn0nSYquljpEjIdXTI-21" value="&lt;font style=&quot;font-size: 8px;&quot;&gt;[layer0]&lt;/font&gt;" style="text;html=1;strokeColor=none;fillColor=none;align=center;verticalAlign=middle;whiteSpace=wrap;rounded=0;" parent="1" vertex="1">
          <mxGeometry x="548" y="187" width="34" height="15" as="geometry" />
        </mxCell>
        <mxCell id="0fRn0nSYquljpEjIdXTI-22" value="&lt;font style=&quot;font-size: 8px;&quot;&gt;[layer1, layer2, layer3]&lt;/font&gt;" style="text;html=1;strokeColor=none;fillColor=none;align=center;verticalAlign=middle;whiteSpace=wrap;rounded=0;" parent="1" vertex="1">
          <mxGeometry x="494.3" y="318" width="88.7" height="15" as="geometry" />
        </mxCell>
        <mxCell id="0fRn0nSYquljpEjIdXTI-24" value="&lt;b&gt;Master&lt;/b&gt;" style="text;html=1;strokeColor=none;fillColor=none;align=center;verticalAlign=middle;whiteSpace=wrap;rounded=0;" parent="1" vertex="1">
          <mxGeometry x="723.7" y="262.5" width="60" height="30" as="geometry" />
        </mxCell>
        <mxCell id="0fRn0nSYquljpEjIdXTI-25" value="&lt;b&gt;Server0&lt;/b&gt;" style="text;html=1;strokeColor=none;fillColor=none;align=center;verticalAlign=middle;whiteSpace=wrap;rounded=0;" parent="1" vertex="1">
          <mxGeometry x="839.4000000000001" y="219.5" width="60" height="30" as="geometry" />
        </mxCell>
        <mxCell id="0fRn0nSYquljpEjIdXTI-26" value="&lt;b&gt;Server1&lt;/b&gt;" style="text;html=1;strokeColor=none;fillColor=none;align=center;verticalAlign=middle;whiteSpace=wrap;rounded=0;" parent="1" vertex="1">
          <mxGeometry x="839.4000000000001" y="331" width="60" height="30" as="geometry" />
        </mxCell>
        <mxCell id="0fRn0nSYquljpEjIdXTI-27" style="edgeStyle=orthogonalEdgeStyle;rounded=0;orthogonalLoop=1;jettySize=auto;html=1;" parent="1" source="0fRn0nSYquljpEjIdXTI-29" target="0fRn0nSYquljpEjIdXTI-31" edge="1">
          <mxGeometry relative="1" as="geometry" />
        </mxCell>
        <mxCell id="0fRn0nSYquljpEjIdXTI-29" value="" style="image;points=[];aspect=fixed;html=1;align=center;shadow=0;dashed=0;image=img/lib/allied_telesis/computer_and_terminals/Server_Desktop.svg;" parent="1" vertex="1">
          <mxGeometry x="734.1000000000001" y="216" width="42.599999999999994" height="54" as="geometry" />
        </mxCell>
        <mxCell id="0fRn0nSYquljpEjIdXTI-30" value="" style="image;points=[];aspect=fixed;html=1;align=center;shadow=0;dashed=0;image=img/lib/allied_telesis/computer_and_terminals/Server_Desktop.svg;" parent="1" vertex="1">
          <mxGeometry x="849.4000000000001" y="286" width="42.599999999999994" height="54" as="geometry" />
        </mxCell>
        <mxCell id="0fRn0nSYquljpEjIdXTI-31" value="" style="image;points=[];aspect=fixed;html=1;align=center;shadow=0;dashed=0;image=img/lib/allied_telesis/computer_and_terminals/Server_Desktop.svg;" parent="1" vertex="1">
          <mxGeometry x="849.4000000000001" y="175" width="42.599999999999994" height="54" as="geometry" />
        </mxCell>
        <mxCell id="0fRn0nSYquljpEjIdXTI-32" value="&lt;b&gt;Part 3: Training&lt;/b&gt;" style="text;html=1;strokeColor=none;fillColor=none;align=left;verticalAlign=middle;whiteSpace=wrap;rounded=0;" parent="1" vertex="1">
          <mxGeometry x="726.7" y="150" width="147.5" height="30" as="geometry" />
        </mxCell>
        <mxCell id="0fRn0nSYquljpEjIdXTI-33" value="&lt;span style=&quot;font-size: 8px;&quot;&gt;&lt;font color=&quot;#00ff00&quot;&gt;&lt;b&gt;traing data&lt;br&gt;x_pos/x_neg&lt;/b&gt;&lt;/font&gt;&lt;br&gt;&lt;/span&gt;" style="text;html=1;strokeColor=none;fillColor=none;align=center;verticalAlign=middle;whiteSpace=wrap;rounded=0;" parent="1" vertex="1">
          <mxGeometry x="790.4000000000001" y="214" width="50" height="15" as="geometry" />
        </mxCell>
        <mxCell id="0fRn0nSYquljpEjIdXTI-35" value="&lt;font style=&quot;font-size: 8px;&quot;&gt;layer0&lt;/font&gt;" style="rounded=1;whiteSpace=wrap;html=1;" parent="1" vertex="1">
          <mxGeometry x="913.4000000000001" y="201.5" width="40" height="16" as="geometry" />
        </mxCell>
        <mxCell id="0fRn0nSYquljpEjIdXTI-36" value="&lt;font style=&quot;font-size: 8px;&quot;&gt;layer1&lt;/font&gt;" style="rounded=1;whiteSpace=wrap;html=1;" parent="1" vertex="1">
          <mxGeometry x="913.4000000000001" y="291" width="40" height="16" as="geometry" />
        </mxCell>
        <mxCell id="0fRn0nSYquljpEjIdXTI-37" value="&lt;font style=&quot;font-size: 8px;&quot;&gt;layer2&lt;/font&gt;" style="rounded=1;whiteSpace=wrap;html=1;" parent="1" vertex="1">
          <mxGeometry x="913.4000000000001" y="310" width="40" height="16" as="geometry" />
        </mxCell>
        <mxCell id="0fRn0nSYquljpEjIdXTI-38" value="&lt;font style=&quot;font-size: 8px;&quot;&gt;layer3&lt;/font&gt;" style="rounded=1;whiteSpace=wrap;html=1;" parent="1" vertex="1">
          <mxGeometry x="913.4000000000001" y="329" width="40" height="16" as="geometry" />
        </mxCell>
        <mxCell id="0fRn0nSYquljpEjIdXTI-41" value="&lt;span style=&quot;font-size: 8px;&quot;&gt;Node0&lt;/span&gt;" style="text;html=1;strokeColor=none;fillColor=none;align=center;verticalAlign=middle;whiteSpace=wrap;rounded=0;" parent="1" vertex="1">
          <mxGeometry x="899.4000000000001" y="179.5" width="30" height="15" as="geometry" />
        </mxCell>
        <mxCell id="0fRn0nSYquljpEjIdXTI-42" value="&lt;span style=&quot;font-size: 8px;&quot;&gt;Node1&lt;/span&gt;" style="text;html=1;strokeColor=none;fillColor=none;align=center;verticalAlign=middle;whiteSpace=wrap;rounded=0;" parent="1" vertex="1">
          <mxGeometry x="900.4000000000001" y="270" width="30" height="15" as="geometry" />
        </mxCell>
        <mxCell id="0fRn0nSYquljpEjIdXTI-43" value="" style="verticalLabelPosition=bottom;html=1;verticalAlign=top;strokeWidth=2;shape=mxgraph.lean_mapping.physical_pull;pointerEvents=1;rotation=-135;strokeColor=#FF0000;" parent="1" vertex="1">
          <mxGeometry x="963.4000000000001" y="308" width="20" height="20" as="geometry" />
        </mxCell>
        <mxCell id="0fRn0nSYquljpEjIdXTI-44" value="" style="verticalLabelPosition=bottom;html=1;verticalAlign=top;strokeWidth=2;shape=mxgraph.lean_mapping.physical_pull;pointerEvents=1;rotation=-135;strokeColor=#FF0000;" parent="1" vertex="1">
          <mxGeometry x="963.4000000000001" y="199.5" width="20" height="20" as="geometry" />
        </mxCell>
        <mxCell id="0fRn0nSYquljpEjIdXTI-46" value="&lt;span style=&quot;font-size: 8px;&quot;&gt;&lt;font color=&quot;#ffd966&quot;&gt;&lt;b&gt;midle feature&lt;br&gt;h_pos/h_neg&lt;/b&gt;&lt;/font&gt;&lt;br&gt;&lt;/span&gt;" style="text;html=1;strokeColor=none;fillColor=none;align=center;verticalAlign=middle;whiteSpace=wrap;rounded=0;" parent="1" vertex="1">
          <mxGeometry x="901.9000000000001" y="243.5" width="63" height="15" as="geometry" />
        </mxCell>
        <mxCell id="0fRn0nSYquljpEjIdXTI-47" value="" style="rounded=0;whiteSpace=wrap;html=1;" parent="1" vertex="1">
          <mxGeometry x="985.7" y="150" width="260" height="220" as="geometry" />
        </mxCell>
        <mxCell id="yt67n-HJsNtKyQaUBFJ7-2" style="edgeStyle=orthogonalEdgeStyle;rounded=0;orthogonalLoop=1;jettySize=auto;html=1;entryX=0.866;entryY=-0.009;entryDx=0;entryDy=0;entryPerimeter=0;" parent="1" source="0fRn0nSYquljpEjIdXTI-48" target="0fRn0nSYquljpEjIdXTI-51" edge="1">
          <mxGeometry relative="1" as="geometry">
            <Array as="points">
              <mxPoint x="1201.7" y="363.5" />
              <mxPoint x="1093.7" y="363.5" />
              <mxPoint x="1093.7" y="263.5" />
              <mxPoint x="1045.7" y="263.5" />
            </Array>
          </mxGeometry>
        </mxCell>
        <mxCell id="0fRn0nSYquljpEjIdXTI-48" value="" style="rounded=0;whiteSpace=wrap;html=1;" parent="1" vertex="1">
          <mxGeometry x="1171.7" y="286.5" width="60" height="65" as="geometry" />
        </mxCell>
        <mxCell id="0fRn0nSYquljpEjIdXTI-49" style="edgeStyle=orthogonalEdgeStyle;rounded=0;orthogonalLoop=1;jettySize=auto;html=1;entryX=0.5;entryY=0;entryDx=0;entryDy=0;" parent="1" source="0fRn0nSYquljpEjIdXTI-50" target="0fRn0nSYquljpEjIdXTI-48" edge="1">
          <mxGeometry relative="1" as="geometry" />
        </mxCell>
        <mxCell id="yt67n-HJsNtKyQaUBFJ7-1" style="edgeStyle=orthogonalEdgeStyle;rounded=0;orthogonalLoop=1;jettySize=auto;html=1;entryX=0.997;entryY=0.856;entryDx=0;entryDy=0;entryPerimeter=0;" parent="1" source="0fRn0nSYquljpEjIdXTI-50" target="0fRn0nSYquljpEjIdXTI-55" edge="1">
          <mxGeometry relative="1" as="geometry">
            <Array as="points">
              <mxPoint x="1201.7" y="233.5" />
              <mxPoint x="1163.7" y="233.5" />
              <mxPoint x="1163.7" y="263.5" />
            </Array>
          </mxGeometry>
        </mxCell>
        <mxCell id="0fRn0nSYquljpEjIdXTI-50" value="" style="rounded=0;whiteSpace=wrap;html=1;" parent="1" vertex="1">
          <mxGeometry x="1171.7" y="196" width="60" height="30" as="geometry" />
        </mxCell>
        <mxCell id="0fRn0nSYquljpEjIdXTI-51" value="&lt;b&gt;Master&lt;/b&gt;" style="text;html=1;strokeColor=none;fillColor=none;align=center;verticalAlign=middle;whiteSpace=wrap;rounded=0;" parent="1" vertex="1">
          <mxGeometry x="994" y="264" width="60" height="30" as="geometry" />
        </mxCell>
        <mxCell id="0fRn0nSYquljpEjIdXTI-52" value="&lt;b&gt;Server0&lt;/b&gt;" style="text;html=1;strokeColor=none;fillColor=none;align=center;verticalAlign=middle;whiteSpace=wrap;rounded=0;" parent="1" vertex="1">
          <mxGeometry x="1107.7" y="221" width="60" height="30" as="geometry" />
        </mxCell>
        <mxCell id="0fRn0nSYquljpEjIdXTI-53" value="&lt;b&gt;Server1&lt;/b&gt;" style="text;html=1;strokeColor=none;fillColor=none;align=center;verticalAlign=middle;whiteSpace=wrap;rounded=0;" parent="1" vertex="1">
          <mxGeometry x="1107.7" y="332.5" width="60" height="30" as="geometry" />
        </mxCell>
        <mxCell id="0fRn0nSYquljpEjIdXTI-54" style="edgeStyle=orthogonalEdgeStyle;rounded=0;orthogonalLoop=1;jettySize=auto;html=1;" parent="1" source="0fRn0nSYquljpEjIdXTI-55" target="0fRn0nSYquljpEjIdXTI-57" edge="1">
          <mxGeometry relative="1" as="geometry" />
        </mxCell>
        <mxCell id="0fRn0nSYquljpEjIdXTI-55" value="" style="image;points=[];aspect=fixed;html=1;align=center;shadow=0;dashed=0;image=img/lib/allied_telesis/computer_and_terminals/Server_Desktop.svg;" parent="1" vertex="1">
          <mxGeometry x="1002.4000000000001" y="217.5" width="42.599999999999994" height="54" as="geometry" />
        </mxCell>
        <mxCell id="0fRn0nSYquljpEjIdXTI-56" value="" style="image;points=[];aspect=fixed;html=1;align=center;shadow=0;dashed=0;image=img/lib/allied_telesis/computer_and_terminals/Server_Desktop.svg;" parent="1" vertex="1">
          <mxGeometry x="1117.7" y="287.5" width="42.599999999999994" height="54" as="geometry" />
        </mxCell>
        <mxCell id="0fRn0nSYquljpEjIdXTI-57" value="" style="image;points=[];aspect=fixed;html=1;align=center;shadow=0;dashed=0;image=img/lib/allied_telesis/computer_and_terminals/Server_Desktop.svg;" parent="1" vertex="1">
          <mxGeometry x="1117.7" y="176.5" width="42.599999999999994" height="54" as="geometry" />
        </mxCell>
        <mxCell id="0fRn0nSYquljpEjIdXTI-58" value="&lt;b&gt;Part 4: Inference&lt;/b&gt;" style="text;html=1;strokeColor=none;fillColor=none;align=left;verticalAlign=middle;whiteSpace=wrap;rounded=0;" parent="1" vertex="1">
          <mxGeometry x="985.7" y="148" width="252.5" height="30" as="geometry" />
        </mxCell>
        <mxCell id="0fRn0nSYquljpEjIdXTI-59" value="&lt;span style=&quot;font-size: 8px;&quot;&gt;&lt;font color=&quot;#00ff00&quot;&gt;&lt;b&gt;text data&lt;br&gt;x_pos/x_neg&lt;/b&gt;&lt;/font&gt;&lt;br&gt;&lt;/span&gt;" style="text;html=1;strokeColor=none;fillColor=none;align=center;verticalAlign=middle;whiteSpace=wrap;rounded=0;" parent="1" vertex="1">
          <mxGeometry x="1058.7" y="215.5" width="50" height="15" as="geometry" />
        </mxCell>
        <mxCell id="0fRn0nSYquljpEjIdXTI-60" value="&lt;font style=&quot;font-size: 8px;&quot;&gt;layer0&lt;/font&gt;" style="rounded=1;whiteSpace=wrap;html=1;" parent="1" vertex="1">
          <mxGeometry x="1181.7" y="203" width="40" height="16" as="geometry" />
        </mxCell>
        <mxCell id="0fRn0nSYquljpEjIdXTI-61" value="&lt;font style=&quot;font-size: 8px;&quot;&gt;layer1&lt;/font&gt;" style="rounded=1;whiteSpace=wrap;html=1;" parent="1" vertex="1">
          <mxGeometry x="1181.7" y="292.5" width="40" height="16" as="geometry" />
        </mxCell>
        <mxCell id="0fRn0nSYquljpEjIdXTI-62" value="&lt;font style=&quot;font-size: 8px;&quot;&gt;layer2&lt;/font&gt;" style="rounded=1;whiteSpace=wrap;html=1;" parent="1" vertex="1">
          <mxGeometry x="1181.7" y="311.5" width="40" height="16" as="geometry" />
        </mxCell>
        <mxCell id="0fRn0nSYquljpEjIdXTI-63" value="&lt;font style=&quot;font-size: 8px;&quot;&gt;layer3&lt;/font&gt;" style="rounded=1;whiteSpace=wrap;html=1;" parent="1" vertex="1">
          <mxGeometry x="1181.7" y="330.5" width="40" height="16" as="geometry" />
        </mxCell>
        <mxCell id="0fRn0nSYquljpEjIdXTI-64" value="&lt;span style=&quot;font-size: 8px;&quot;&gt;Node0&lt;/span&gt;" style="text;html=1;strokeColor=none;fillColor=none;align=center;verticalAlign=middle;whiteSpace=wrap;rounded=0;" parent="1" vertex="1">
          <mxGeometry x="1167.7" y="181" width="30" height="15" as="geometry" />
        </mxCell>
        <mxCell id="0fRn0nSYquljpEjIdXTI-65" value="&lt;span style=&quot;font-size: 8px;&quot;&gt;Node1&lt;/span&gt;" style="text;html=1;strokeColor=none;fillColor=none;align=center;verticalAlign=middle;whiteSpace=wrap;rounded=0;" parent="1" vertex="1">
          <mxGeometry x="1168.7" y="271.5" width="30" height="15" as="geometry" />
        </mxCell>
        <mxCell id="0fRn0nSYquljpEjIdXTI-68" value="&lt;span style=&quot;font-size: 8px;&quot;&gt;&lt;font color=&quot;#ffd966&quot;&gt;&lt;b&gt;midle feature&lt;br&gt;h_pos/h_neg&lt;/b&gt;&lt;/font&gt;&lt;br&gt;&lt;/span&gt;" style="text;html=1;strokeColor=none;fillColor=none;align=center;verticalAlign=middle;whiteSpace=wrap;rounded=0;" parent="1" vertex="1">
          <mxGeometry x="1170.2" y="245" width="63" height="15" as="geometry" />
        </mxCell>
        <mxCell id="0fRn0nSYquljpEjIdXTI-69" style="edgeStyle=orthogonalEdgeStyle;rounded=0;orthogonalLoop=1;jettySize=auto;html=1;strokeColor=#FF0000;" parent="1" edge="1">
          <mxGeometry relative="1" as="geometry">
            <mxPoint x="330.70000000000005" y="395" as="sourcePoint" />
            <mxPoint x="375.70000000000005" y="395" as="targetPoint" />
          </mxGeometry>
        </mxCell>
        <mxCell id="0fRn0nSYquljpEjIdXTI-70" style="edgeStyle=orthogonalEdgeStyle;rounded=0;orthogonalLoop=1;jettySize=auto;html=1;strokeColor=#000000;" parent="1" edge="1">
          <mxGeometry relative="1" as="geometry">
            <mxPoint x="221.70000000000005" y="395" as="sourcePoint" />
            <mxPoint x="266.70000000000005" y="395" as="targetPoint" />
          </mxGeometry>
        </mxCell>
        <mxCell id="0fRn0nSYquljpEjIdXTI-71" value=": Forward" style="text;html=1;strokeColor=none;fillColor=none;align=center;verticalAlign=middle;whiteSpace=wrap;rounded=0;" parent="1" vertex="1">
          <mxGeometry x="263.70000000000005" y="380" width="60" height="30" as="geometry" />
        </mxCell>
        <mxCell id="0fRn0nSYquljpEjIdXTI-72" value=": Backpropagation" style="text;html=1;strokeColor=none;fillColor=none;align=center;verticalAlign=middle;whiteSpace=wrap;rounded=0;" parent="1" vertex="1">
          <mxGeometry x="376.70000000000005" y="380" width="100" height="30" as="geometry" />
        </mxCell>
        <mxCell id="0fRn0nSYquljpEjIdXTI-73" value="NodeX" style="text;html=1;strokeColor=none;fillColor=none;align=center;verticalAlign=middle;whiteSpace=wrap;rounded=0;" parent="1" vertex="1">
          <mxGeometry x="640.4" y="380" width="60" height="30" as="geometry" />
        </mxCell>
        <mxCell id="0fRn0nSYquljpEjIdXTI-74" value="" style="rounded=0;whiteSpace=wrap;html=1;" parent="1" vertex="1">
          <mxGeometry x="690.4" y="385" width="40" height="20" as="geometry" />
        </mxCell>
        <mxCell id="0fRn0nSYquljpEjIdXTI-75" value=": AI computer node from different computer server&lt;br&gt;Inspired by A ROS node, pub/sub concept" style="text;html=1;strokeColor=none;fillColor=none;align=center;verticalAlign=middle;whiteSpace=wrap;rounded=0;" parent="1" vertex="1">
          <mxGeometry x="732.4" y="385" width="270" height="30" as="geometry" />
        </mxCell>
        <mxCell id="0fRn0nSYquljpEjIdXTI-76" value="Layerx" style="rounded=1;whiteSpace=wrap;html=1;" parent="1" vertex="1">
          <mxGeometry x="1013.7" y="385" width="60" height="30" as="geometry" />
        </mxCell>
        <mxCell id="0fRn0nSYquljpEjIdXTI-77" value=": Model Layer" style="text;html=1;strokeColor=none;fillColor=none;align=center;verticalAlign=middle;whiteSpace=wrap;rounded=0;" parent="1" vertex="1">
          <mxGeometry x="1078.7" y="385" width="75" height="30" as="geometry" />
        </mxCell>
        <mxCell id="0fRn0nSYquljpEjIdXTI-80" value="" style="image;points=[];aspect=fixed;html=1;align=center;shadow=0;dashed=0;image=img/lib/allied_telesis/computer_and_terminals/Server_Desktop.svg;" parent="1" vertex="1">
          <mxGeometry x="491.03999999999996" y="374" width="34.71" height="44" as="geometry" />
        </mxCell>
        <mxCell id="0fRn0nSYquljpEjIdXTI-81" value=": Computer server" style="text;html=1;strokeColor=none;fillColor=none;align=center;verticalAlign=middle;whiteSpace=wrap;rounded=0;" parent="1" vertex="1">
          <mxGeometry x="530.1" y="381" width="100" height="30" as="geometry" />
        </mxCell>
        <mxCell id="0fRn0nSYquljpEjIdXTI-82" value="" style="rounded=0;whiteSpace=wrap;html=1;" parent="1" vertex="1">
          <mxGeometry x="1245.2" y="150" width="260" height="220" as="geometry" />
        </mxCell>
        <mxCell id="0fRn0nSYquljpEjIdXTI-83" value="" style="rounded=0;whiteSpace=wrap;html=1;" parent="1" vertex="1">
          <mxGeometry x="1422.9" y="269.5" width="60" height="65" as="geometry" />
        </mxCell>
        <mxCell id="0fRn0nSYquljpEjIdXTI-85" value="" style="rounded=0;whiteSpace=wrap;html=1;" parent="1" vertex="1">
          <mxGeometry x="1422.9" y="192" width="60" height="30" as="geometry" />
        </mxCell>
        <mxCell id="0fRn0nSYquljpEjIdXTI-86" value="&lt;b&gt;Master&lt;/b&gt;" style="text;html=1;strokeColor=none;fillColor=none;align=center;verticalAlign=middle;whiteSpace=wrap;rounded=0;" parent="1" vertex="1">
          <mxGeometry x="1245.2" y="260" width="60" height="30" as="geometry" />
        </mxCell>
        <mxCell id="0fRn0nSYquljpEjIdXTI-87" value="&lt;b&gt;Server0&lt;/b&gt;" style="text;html=1;strokeColor=none;fillColor=none;align=center;verticalAlign=middle;whiteSpace=wrap;rounded=0;" parent="1" vertex="1">
          <mxGeometry x="1358.9" y="217" width="60" height="30" as="geometry" />
        </mxCell>
        <mxCell id="0fRn0nSYquljpEjIdXTI-88" value="&lt;b&gt;Server1&lt;/b&gt;" style="text;html=1;strokeColor=none;fillColor=none;align=center;verticalAlign=middle;whiteSpace=wrap;rounded=0;" parent="1" vertex="1">
          <mxGeometry x="1358.9" y="315.5" width="60" height="30" as="geometry" />
        </mxCell>
        <mxCell id="0fRn0nSYquljpEjIdXTI-90" value="" style="image;points=[];aspect=fixed;html=1;align=center;shadow=0;dashed=0;image=img/lib/allied_telesis/computer_and_terminals/Server_Desktop.svg;" parent="1" vertex="1">
          <mxGeometry x="1253.6000000000001" y="213.5" width="42.599999999999994" height="54" as="geometry" />
        </mxCell>
        <mxCell id="0fRn0nSYquljpEjIdXTI-91" value="" style="image;points=[];aspect=fixed;html=1;align=center;shadow=0;dashed=0;image=img/lib/allied_telesis/computer_and_terminals/Server_Desktop.svg;" parent="1" vertex="1">
          <mxGeometry x="1368.9" y="270.5" width="42.599999999999994" height="54" as="geometry" />
        </mxCell>
        <mxCell id="0fRn0nSYquljpEjIdXTI-92" value="" style="image;points=[];aspect=fixed;html=1;align=center;shadow=0;dashed=0;image=img/lib/allied_telesis/computer_and_terminals/Server_Desktop.svg;" parent="1" vertex="1">
          <mxGeometry x="1368.9" y="172.5" width="42.599999999999994" height="54" as="geometry" />
        </mxCell>
        <mxCell id="0fRn0nSYquljpEjIdXTI-93" value="&lt;b&gt;Part 5: Model weight saving&lt;/b&gt;" style="text;html=1;strokeColor=none;fillColor=none;align=left;verticalAlign=middle;whiteSpace=wrap;rounded=0;" parent="1" vertex="1">
          <mxGeometry x="1245.2" y="150.5" width="170" height="30" as="geometry" />
        </mxCell>
        <mxCell id="0fRn0nSYquljpEjIdXTI-95" value="&lt;font style=&quot;font-size: 8px;&quot;&gt;layer0&lt;/font&gt;" style="rounded=1;whiteSpace=wrap;html=1;" parent="1" vertex="1">
          <mxGeometry x="1432.9" y="199" width="40" height="16" as="geometry" />
        </mxCell>
        <mxCell id="0fRn0nSYquljpEjIdXTI-96" value="&lt;font style=&quot;font-size: 8px;&quot;&gt;layer1&lt;/font&gt;" style="rounded=1;whiteSpace=wrap;html=1;" parent="1" vertex="1">
          <mxGeometry x="1432.9" y="275.5" width="40" height="16" as="geometry" />
        </mxCell>
        <mxCell id="0fRn0nSYquljpEjIdXTI-97" value="&lt;font style=&quot;font-size: 8px;&quot;&gt;layer2&lt;/font&gt;" style="rounded=1;whiteSpace=wrap;html=1;" parent="1" vertex="1">
          <mxGeometry x="1432.9" y="294.5" width="40" height="16" as="geometry" />
        </mxCell>
        <mxCell id="0fRn0nSYquljpEjIdXTI-98" value="&lt;font style=&quot;font-size: 8px;&quot;&gt;layer3&lt;/font&gt;" style="rounded=1;whiteSpace=wrap;html=1;" parent="1" vertex="1">
          <mxGeometry x="1432.9" y="313.5" width="40" height="16" as="geometry" />
        </mxCell>
        <mxCell id="0fRn0nSYquljpEjIdXTI-99" value="&lt;span style=&quot;font-size: 8px;&quot;&gt;Node0&lt;/span&gt;" style="text;html=1;strokeColor=none;fillColor=none;align=center;verticalAlign=middle;whiteSpace=wrap;rounded=0;" parent="1" vertex="1">
          <mxGeometry x="1418.9" y="177" width="30" height="15" as="geometry" />
        </mxCell>
        <mxCell id="0fRn0nSYquljpEjIdXTI-100" value="&lt;span style=&quot;font-size: 8px;&quot;&gt;Node1&lt;/span&gt;" style="text;html=1;strokeColor=none;fillColor=none;align=center;verticalAlign=middle;whiteSpace=wrap;rounded=0;" parent="1" vertex="1">
          <mxGeometry x="1419.9" y="254.5" width="30" height="15" as="geometry" />
        </mxCell>
        <mxCell id="0fRn0nSYquljpEjIdXTI-105" value="&lt;span style=&quot;font-size: 8px;&quot;&gt;Auto Saved weight&lt;/span&gt;" style="text;html=1;strokeColor=none;fillColor=none;align=center;verticalAlign=middle;whiteSpace=wrap;rounded=0;" parent="1" vertex="1">
          <mxGeometry x="1415.9" y="218.5" width="78" height="15" as="geometry" />
        </mxCell>
        <mxCell id="0fRn0nSYquljpEjIdXTI-107" value="&lt;span style=&quot;font-size: 8px;&quot;&gt;Auto Saved weight&lt;/span&gt;" style="text;html=1;strokeColor=none;fillColor=none;align=center;verticalAlign=middle;whiteSpace=wrap;rounded=0;" parent="1" vertex="1">
          <mxGeometry x="1415.9" y="330.5" width="78" height="15" as="geometry" />
        </mxCell>
        <mxCell id="0fRn0nSYquljpEjIdXTI-108" value="" style="endArrow=classic;startArrow=classic;html=1;rounded=0;entryX=-0.054;entryY=0.552;entryDx=0;entryDy=0;entryPerimeter=0;" parent="1" source="0fRn0nSYquljpEjIdXTI-90" target="0fRn0nSYquljpEjIdXTI-92" edge="1">
          <mxGeometry width="50" height="50" relative="1" as="geometry">
            <mxPoint x="1304.9" y="261.5" as="sourcePoint" />
            <mxPoint x="1354.9" y="211.5" as="targetPoint" />
          </mxGeometry>
        </mxCell>
        <mxCell id="0fRn0nSYquljpEjIdXTI-109" value="" style="endArrow=classic;startArrow=classic;html=1;rounded=0;entryX=0.017;entryY=0.626;entryDx=0;entryDy=0;entryPerimeter=0;exitX=0.998;exitY=0.422;exitDx=0;exitDy=0;exitPerimeter=0;" parent="1" source="0fRn0nSYquljpEjIdXTI-90" target="0fRn0nSYquljpEjIdXTI-91" edge="1">
          <mxGeometry width="50" height="50" relative="1" as="geometry">
            <mxPoint x="1305.9" y="241.5" as="sourcePoint" />
            <mxPoint x="1376.9" y="212.5" as="targetPoint" />
          </mxGeometry>
        </mxCell>
        <mxCell id="NQWvivjKoUJci7XRYmGX-1" value="" style="verticalLabelPosition=bottom;html=1;verticalAlign=top;strokeWidth=2;shape=mxgraph.lean_mapping.physical_pull;pointerEvents=1;rotation=-45;strokeColor=#0000FF;fontColor=#0000FF;" parent="1" vertex="1">
          <mxGeometry x="1449.9" y="345.5" width="9" height="9" as="geometry" />
        </mxCell>
        <mxCell id="NQWvivjKoUJci7XRYmGX-4" value="" style="verticalLabelPosition=bottom;html=1;verticalAlign=top;strokeWidth=2;shape=mxgraph.lean_mapping.physical_pull;pointerEvents=1;rotation=-45;strokeColor=#0000FF;" parent="1" vertex="1">
          <mxGeometry x="1450.4" y="232" width="9" height="9" as="geometry" />
        </mxCell>
        <mxCell id="NQWvivjKoUJci7XRYmGX-5" value="&lt;font style=&quot;font-size: 6px;&quot;&gt;Reuse&lt;/font&gt;" style="text;html=1;strokeColor=none;fillColor=none;align=center;verticalAlign=middle;whiteSpace=wrap;rounded=0;fontColor=#0000FF;" parent="1" vertex="1">
          <mxGeometry x="1441.65" y="235.5" width="26.5" height="14" as="geometry" />
        </mxCell>
        <mxCell id="NQWvivjKoUJci7XRYmGX-6" value="&lt;font style=&quot;font-size: 6px;&quot;&gt;Reuse&lt;/font&gt;" style="text;html=1;strokeColor=none;fillColor=none;align=center;verticalAlign=middle;whiteSpace=wrap;rounded=0;fontColor=#0000FF;" parent="1" vertex="1">
          <mxGeometry x="1441.15" y="348.5" width="26.5" height="14" as="geometry" />
        </mxCell>
        <mxCell id="yt67n-HJsNtKyQaUBFJ7-3" value="&lt;span style=&quot;font-size: 8px;&quot;&gt;&lt;b style=&quot;&quot;&gt;&lt;font color=&quot;#ff3333&quot;&gt;goodness&lt;/font&gt;&lt;/b&gt;&lt;br&gt;&lt;/span&gt;" style="text;html=1;strokeColor=none;fillColor=none;align=center;verticalAlign=middle;whiteSpace=wrap;rounded=0;" parent="1" vertex="1">
          <mxGeometry x="1060.95" y="248.5" width="63" height="15" as="geometry" />
        </mxCell>
      </root>
    </mxGraphModel>
  </diagram>
</mxfile>
